# xmcd
#
# Track frame offsets:
#	150
#	15792
#	31460
#	47417
#	66922
#	87207
#	101362
#	115840
#	133205
#	152697
#
# Disc length: 2278 seconds
#
# Revision: 3
# Processed by: cddbd v1.5.2PL0 Copyright (c) Steve Scherf et al.
# Submitted via: EasyCDDAExtractor 15.3.0.1
#
DISCID=7208e40a
DTITLE=Chayanne - Cautivo
DYEAR=2005
DGENRE=Latin
TTITLE0=Te Hecho De Menos
TTITLE1=No Te Preocupes Por Mi
TTITLE2=Curame
TTITLE3=No Se Por Que
TTITLE4=Despues De Todo
TTITLE5=Swing
TTITLE6=Nada Sin Tu Amor
TTITLE7=En La Orilla
TTITLE8=Me Llenas De Ti
TTITLE9=Antes De Dormir
EXTD=cd side
EXTT0=
EXTT1=
EXTT2=
EXTT3=
EXTT4=
EXTT5=
EXTT6=
EXTT7=
EXTT8=
EXTT9=
PLAYORDER=
